<!--?xml version="1.0" encoding="utf-8"?-->
<!-- Generator: Adobe Illustrator 18.1.1, SVG Export Plug-In . SVG Version: 6.00 Build 0)  -->

<svg version="1.1" id="_x31_0" xmlns="http://www.w3.org/2000/svg" xmlns:xlink="http://www.w3.org/1999/xlink" x="0px" y="0px" viewBox="0 0 512 512" style="width: 64px; height: 64px; opacity: 1;" xml:space="preserve">
<style type="text/css">
	.st0{fill:#374149;}
</style>
<g>
	<path class="st0" d="M356.797,261.691V158.18c0-10.926-5.234-21.329-13.988-27.844l-45.387-33.801V74.383h6.618V25.606
		C304.039,11.488,292.551,0,278.43,0H233.57c-14.117,0-25.641,11.488-25.641,25.606v48.778h6.649v22.152l-45.387,33.801
		c-8.754,6.515-13.988,16.918-13.988,27.844v103.511l14.254,14.25c-6.847,7.21-10.633,16.621-10.633,26.629v160.652
		c0,13.035,5.07,25.278,14.286,34.493C182.324,506.93,194.57,512,207.57,512h96.828c13.035,0,25.278-5.07,34.492-14.285
		c9.219-9.215,14.286-21.458,14.286-34.493V302.57c0-10.008-3.786-19.418-10.664-26.629l8.492-8.458L356.797,261.691z
		 M326.32,264.488c-5.71,7.367-5.171,18,1.578,24.75c3.555,3.554,5.531,8.328,5.531,13.332v160.652
		c0,7.703-3.062,15.074-8.492,20.539c-5.465,5.43-12.836,8.492-20.539,8.492H207.57c-7.668,0-15.074-3.062-20.508-8.492
		c-2.73-2.734-4.836-5.957-6.285-9.449c-1.45-3.489-2.203-7.238-2.203-11.09V302.57c0-5.004,1.973-9.778,5.496-13.332
		c3.687-3.653,5.527-8.488,5.527-13.297c0-4.078-1.316-8.16-3.98-11.551h87.336L326.32,264.488z M312.778,132.738H249.57
		l-50.386-0.129l35.144-26.168V74.383h43.348v32.058l19.633,14.621L312.778,132.738z M287.582,28.008v29.918h-9.906h-43.348h-9.942
		V28.008v-2.402c0-5.035,4.114-9.149,9.184-9.149h44.859c5.07,0,9.153,4.114,9.153,9.149V28.008z" style="fill: rgb(75, 75, 75);"></path>
	<polygon class="st0" points="216.782,304.578 216.782,304.578 216.621,304.578 216.621,457.035 229.786,457.035 229.786,304.578 
		216.859,304.578 	" style="fill: rgb(75, 75, 75);"></polygon>
	<polygon class="st0" points="295.383,304.734 295.383,304.578 282.454,304.578 282.375,304.578 282.375,304.578 282.215,304.578 
		282.215,456.41 282.215,456.875 282.215,456.875 282.215,457.035 295.383,457.035 295.383,305.199 295.383,304.734 	" style="fill: rgb(75, 75, 75);"></polygon>
	<rect x="209.906" y="280.32" class="st0" width="92.156" height="6.582" style="fill: rgb(75, 75, 75);"></rect>
</g>
</svg>
