<?xml version="1.0" encoding="iso-8859-1"?>
<!-- Generator: Adobe Illustrator 19.0.0, SVG Export Plug-In . SVG Version: 6.00 Build 0)  -->
<svg version="1.1" id="Layer_1" xmlns="http://www.w3.org/2000/svg" xmlns:xlink="http://www.w3.org/1999/xlink" x="0px" y="0px"
	 viewBox="0 0 512 512" style="enable-background:new 0 0 512 512;" xml:space="preserve">
<rect x="116.87" y="267.13" style="fill:#9BD4E3;" width="116.87" height="66.783"/>
<path style="fill:#C6DCE5;" d="M116.87,333.913C52.429,333.913,0,259.016,0,166.957S52.429,0,116.87,0s116.87,74.897,116.87,166.957
	S181.31,333.913,116.87,333.913z"/>
<path style="fill:#AAC9D6;" d="M233.739,166.957C233.739,74.897,181.31,0,116.87,0v333.913
	C181.31,333.913,233.739,259.016,233.739,166.957z"/>
<path style="fill:#E3EDED;" d="M395.13,0H256H116.87c22.234,0,43.104,15.604,58.415,40.101s25.064,57.888,25.064,93.464v180.87
	v180.87c0,4.611,1.868,8.785,4.89,11.806c3.022,3.021,7.195,4.89,11.806,4.89h139.13h139.13c4.611,0,8.785-1.868,11.806-4.89
	c3.021-3.022,4.89-7.195,4.89-11.806v-180.87v-180.87c0-46.03-13.107-79.421-34.27-101.305S427.351,0,395.13,0z"/>
<g>
	<path style="fill:#AAC9D6;" d="M261.565,411.826h-44.522c-9.223,0-16.696-7.473-16.696-16.696c0-9.223,7.473-16.696,16.696-16.696
		h44.522c9.223,0,16.696,7.473,16.696,16.696C278.261,404.353,270.788,411.826,261.565,411.826z"/>
	<path style="fill:#AAC9D6;" d="M384,411.826h-55.652c-9.223,0-16.696-7.473-16.696-16.696c0-9.223,7.473-16.696,16.696-16.696H384
		c9.223,0,16.696,7.473,16.696,16.696C400.696,404.353,393.223,411.826,384,411.826z"/>
	<path style="fill:#AAC9D6;" d="M495.304,411.826h-44.522c-9.223,0-16.696-7.473-16.696-16.696c0-9.223,7.473-16.696,16.696-16.696
		h44.522c9.223,0,16.696,7.473,16.696,16.696C512,404.353,504.527,411.826,495.304,411.826z"/>
</g>
<ellipse style="fill:#57565C;" cx="116.87" cy="166.957" rx="50.087" ry="66.783"/>
<path style="fill:#3E3D42;" d="M166.957,166.957c0-36.883-22.423-66.783-50.087-66.783v133.565
	C144.533,233.739,166.957,203.839,166.957,166.957z"/>
<g>
</g>
<g>
</g>
<g>
</g>
<g>
</g>
<g>
</g>
<g>
</g>
<g>
</g>
<g>
</g>
<g>
</g>
<g>
</g>
<g>
</g>
<g>
</g>
<g>
</g>
<g>
</g>
<g>
</g>
</svg>
